<svg xmlns="http://www.w3.org/2000/svg" viewBox="0 0 120 120" width="512" height="512">
  <rect width="120" height="120" fill="#111319"/>
  <g transform="translate(60,60) scale(0.82) translate(-60,-60)">
  <defs>
    <radialGradient id="gp1" cx="50%" cy="42%" r="62%">
      <stop offset="0" stop-color="#ff6f5f" stop-opacity="0.38"/>
      <stop offset="1" stop-color="#ff6f5f" stop-opacity="0"/>
    </radialGradient>
    <clipPath id="cp1"><circle cx="60" cy="60" r="59"/></clipPath>
  </defs>
  <g clip-path="url(#cp1)">
    <circle cx="60" cy="60" r="59" fill="#191b22"/>
    <circle cx="60" cy="60" r="59" fill="url(#gp1)"/>
    
    <path d="M22 120 C22 102 38 92 60 92 C82 92 98 102 98 120 Z" fill="#2a2030" stroke="#12101c" stroke-width="3" stroke-linejoin="round"/>
    <ellipse cx="31" cy="56" rx="6" ry="8" fill="#8e3350" stroke="#12101c" stroke-width="3"/>
    <ellipse cx="89" cy="56" rx="6" ry="8" fill="#8e3350" stroke="#12101c" stroke-width="3"/>
    <path d="M60 20 C79 20 91 33 91 53 C91 75 79 89 60 89 C41 89 29 75 29 53 C29 33 41 20 60 20 Z" fill="#8e3350" stroke="#12101c" stroke-width="3" stroke-linejoin="round"/>
    <path d="M34 44 C22 30 22 14 32 4 C34 20 40 30 48 36 Z" fill="#e8c86a" stroke="#12101c" stroke-width="3" stroke-linejoin="round"/>
      <path d="M86 44 C98 30 98 14 88 4 C86 20 80 30 72 36 Z" fill="#e8c86a" stroke="#12101c" stroke-width="3" stroke-linejoin="round"/>
    <path d="M60 26 C57 34 57 40 60 46 C63 40 63 34 60 26 Z" fill="#ffb347" stroke="#12101c" stroke-width="2" stroke-linejoin="round"/>
    <path d="M39 43 C45 39 53 40 57 44" fill="none" stroke="#12101c" stroke-width="3" stroke-linecap="round"/><path d="M81 43 C75 39 67 40 63 44" fill="none" stroke="#12101c" stroke-width="3" stroke-linecap="round"/>
    <ellipse cx="48" cy="53" rx="8" ry="6.5" fill="#ff6f5f" stroke="#12101c" stroke-width="2.5"/>
      <ellipse cx="72" cy="53" rx="8" ry="6.5" fill="#ff6f5f" stroke="#12101c" stroke-width="2.5"/>
      <ellipse cx="48" cy="53" rx="2.6" ry="5" fill="#12101c"/><ellipse cx="72" cy="53" rx="2.6" ry="5" fill="#12101c"/>
    <path d="M60 56 C57 64 57 68 60 70" fill="none" stroke="#12101c" stroke-width="3" stroke-linecap="round"/>
    <path d="M46 70 C52 66 56 68 60 71 C64 68 68 66 74 70 C68 74 64 73 60 74 C56 73 52 74 46 70 Z" fill="#12101c" stroke="#12101c" stroke-width="2" stroke-linejoin="round"/>
    <path d="M45 72 C52 82 68 82 75 72 C72 86 48 86 45 72 Z" fill="#3a1020" stroke="#12101c" stroke-width="3" stroke-linejoin="round"/>
      <path d="M50 74 L54 82 L58 74 Z" fill="#fff8e7"/><path d="M62 74 L66 82 L70 74 Z" fill="#fff8e7"/>
    
  </g>
  <circle cx="60" cy="60" r="57.5" fill="none" stroke="#ff6f5f" stroke-width="3" opacity="0.5"/>
</g>
</svg>